<svg xmlns="http://www.w3.org/2000/svg" viewBox="0 0 64 64" fill="none">
	<defs>
		<linearGradient id="dlm-gold" x1="10" x2="54" y1="8" y2="56" gradientUnits="userSpaceOnUse">
			<stop stop-color="#D9B36A" />
			<stop offset="0.52" stop-color="#B78535" />
			<stop offset="1" stop-color="#8C6A3B" />
		</linearGradient>
		<linearGradient id="dlm-sheen" x1="18" x2="46" y1="16" y2="44" gradientUnits="userSpaceOnUse">
			<stop stop-color="#FFF7E5" stop-opacity="0.95" />
			<stop offset="1" stop-color="#F1D29A" stop-opacity="0.15" />
		</linearGradient>
	</defs>

	<rect width="64" height="64" rx="18" fill="#1F1710" />
	<rect x="3" y="3" width="58" height="58" rx="15" stroke="url(#dlm-gold)" stroke-width="2" />
	<path
		d="M18 18h12.5c9.6 0 15.5 5.2 15.5 14 0 8.7-5.9 14-15.5 14H18V18Zm11.8 21.6c5.6 0 8.9-2.7 8.9-7.6 0-5.1-3.3-7.7-8.9-7.7h-4.4v15.3h4.4Z"
		fill="url(#dlm-gold)"
	/>
	<path
		d="M46 46V20h-5.3v17.1L33.6 30l-3.2 3.2L41.1 44c1.8 1.8 4.9.5 4.9-2Z"
		fill="url(#dlm-sheen)"
	/>
	<circle cx="46" cy="18" r="4" fill="#B6542D" />
</svg>